<?xml version="1.0" encoding="UTF-8" standalone="no"?>
<!-- Created with Inkscape (http://www.inkscape.org/) -->

<svg
   version="1.1"
   id="svg46076"
   width="675"
   height="653"
   viewBox="0 0 675 653"
   sodipodi:docname="desktop-off.png"
   xmlns:inkscape="http://www.inkscape.org/namespaces/inkscape"
   xmlns:sodipodi="http://sodipodi.sourceforge.net/DTD/sodipodi-0.dtd"
   xmlns="http://www.w3.org/2000/svg"
   xmlns:svg="http://www.w3.org/2000/svg">
  <defs
     id="defs46080" />
  <sodipodi:namedview
     id="namedview46078"
     pagecolor="#ffffff"
     bordercolor="#666666"
     borderopacity="1.0"
     inkscape:pageshadow="2"
     inkscape:pageopacity="0.0"
     inkscape:pagecheckerboard="0"
     showgrid="false" />
  <g
     inkscape:groupmode="layer"
     inkscape:label="Image"
     id="g46082">
    <path
       style="fill:#000000"
       d="m 140.81681,572.82835 c -1.61822,-1.9645 2.04482,-35.12566 4.27944,-38.74136 0.48796,-0.78953 1.21172,-3.25196 1.60837,-5.47207 0.69491,-3.88955 2.95769,-10.87544 4.87046,-15.03657 0.50565,-1.1 1.92025,-4.475 3.14356,-7.5 1.22331,-3.025 2.67233,-6.08637 3.22004,-6.80303 0.5477,-0.71667 1.94544,-3.19167 3.10608,-5.5 10.49838,-20.8797 33.54619,-46.30935 56.05683,-61.84992 8.49216,-5.8627 17.18254,-10.84705 18.9122,-10.84705 0.90781,0 1.90302,-0.65787 2.21157,-1.46193 0.30854,-0.80407 1.46472,-1.74877 2.56927,-2.09934 6.25522,-1.98533 -5.0471,-2.4789 -61.79758,-2.69868 -57.10674,-0.22116 -62.19479,-0.37777 -64.65487,-1.99005 -1.46862,-0.9625 -3.13501,-1.75 -3.70309,-1.75 -1.47975,0 -10.17184,-6.39554 -12.537499,-9.22495 -3.72944,-4.46052 -6.2162,-8.30525 -6.9818,-10.79439 -0.41964,-1.36436 -1.27041,-3.11232 -1.89059,-3.88435 -0.82494,-1.02692 -1.12761,-39.54505 -1.12761,-143.5 V 101.57835 l 3.34176,-6.657559 C 95.532521,86.774262 101.8028,80.334545 109.9477,75.916451 l 6.15389,-3.338098 h 198 198.00003 l 19.4795,2.306341 c 17.04469,2.01807 19.87599,2.608832 22.65239,4.726449 4.5224,3.449463 11.3446,10.752659 11.3573,12.158188 0.027,2.93719 2.4962,1.93018 10.194,-4.156759 7.5552,-5.97423 8.6513,-6.524079 12.7901,-6.415904 2.4897,0.06507 5.8142,0.402573 7.3878,0.75 2.7651,0.610477 2.4876,0.925451 -8.2643,9.381683 -6.1189,4.8125 -11.646,8.749999 -12.2823,8.749999 -0.6364,0 -1.9516,-0.719079 -2.9228,-1.597959 -3.0939,-2.79999 -3.7445,-0.84837 -2.2789,6.836519 1.1358,5.95552 1.385,30.84657 1.386,138.40448 10e-4,146.66226 0.2235,141.63104 -6.7167,152.10842 -4.4553,6.72605 -11.3112,12.76766 -18.2821,16.11083 l -5.49999,2.63771 -61.92132,0.25462 c -34.05671,0.14004 -62.17498,0.50832 -62.48506,0.81839 -0.80871,0.80871 3.53003,3.9427 9.90635,7.15563 3.025,1.52425 5.95,3.12069 6.5,3.54766 1.38672,1.07651 10.26816,7.00642 12.31693,8.2237 3.81428,2.26626 22.81425,19.27479 28.18307,25.2291 5.6485,6.26451 12.8811,15.81186 18.46859,24.37938 4.35051,6.67081 13.66304,25.27263 14.96434,29.89152 0.3874,1.375 1.2974,3.85 2.0221,5.5 1.6237,3.69651 3.9035,11.70202 6.0296,21.17287 2.1026,9.36651 3.5861,30.40661 2.2616,32.07713 -0.7866,0.99202 -39.63738,1.25 -188.24623,1.25 -148.58827,0 -187.46773,-0.25812 -188.28478,-1.25 z m 327.21757,-48.01721 c -0.042,-6.09892 -0.51143,-10.21143 -1.25,-10.95 -0.65053,-0.65053 -1.18279,-2.01748 -1.18279,-3.03765 0,-3.17022 -5.74436,-15.40427 -11.38403,-24.24514 -3.99296,-6.25945 -24.20889,-26.91847 -27.95736,-28.57013 -1.18724,-0.52312 -4.85861,-2.73208 -8.15861,-4.90879 -7.96092,-5.25112 -21.95136,-12.02108 -24.84211,-12.02108 -0.84692,0 -1.77754,-0.38458 -2.06805,-0.85463 -0.6745,-1.09137 -11.57674,-4.72527 -18.08984,-6.02965 -2.75,-0.55074 -6.8,-1.45348 -9,-2.00607 -2.2,-0.55259 -10.86029,-1.76514 -19.24509,-2.69455 -14.29488,-1.5845 -16.22707,-1.58506 -31,-0.009 -8.6652,0.92448 -17.77991,2.29545 -20.25491,3.04659 -2.475,0.75115 -6.525,1.67791 -9,2.05948 -4.57607,0.70548 -14.75791,3.82082 -17.81641,5.45129 -0.92597,0.49364 -4.38359,1.93867 -7.68359,3.21119 -5.09186,1.96348 -11.48469,5.34747 -20.99697,11.11458 -10.36523,6.28423 -23.30843,18.19288 -31.27309,28.77341 -4.5306,6.01862 -12.21859,20.47403 -12.22561,22.98731 -0.002,0.8525 -0.46964,2.01531 -1.03835,2.58402 -0.56872,0.56872 -1.44647,3.24622 -1.95056,5.95 -0.5041,2.70379 -1.42395,7.35983 -2.04413,10.34675 -0.80058,3.85582 -0.82067,6.10438 -0.0693,7.75351 l 1.05831,2.32274 138.76984,-0.25351 138.76986,-0.25346 -0.0672,-9.76721 z m 64.53204,-150.66705 c 0.6982,-1.30469 1.0352,-43.96449 1.0352,-131.06574 0,-87.10125 -0.337,-129.76105 -1.0352,-131.06574 -1.0182,-1.90254 -4.3445,-1.93426 -202.80001,-1.93426 -155.59486,0 -202.03942,0.2746 -202.96482,1.2 -1.74332,1.74332 -1.74332,261.85668 0,263.6 0.9254,0.9254 47.36996,1.2 202.96482,1.2 198.45551,0 201.78181,-0.0317 202.80001,-1.93426 z M 152.35159,347.82835 c -1.644,-1.644 -1.75,-7.98469 -1.75,-104.67857 0,-92.2381 0.16321,-103.09179 1.57143,-104.5 1.41665,-1.41665 18.88009,-1.57143 177.3,-1.57143 135.34444,0 176.0043,0.27577 176.9286,1.2 0.9181,0.91808 1.1964,25.52724 1.1847,104.75 -0.01,56.9525 -0.371,104.11 -0.8056,104.79443 -0.6244,0.98328 -37.71396,1.29807 -176.73471,1.5 -166.42915,0.24175 -176.03906,0.16093 -177.69442,-1.49443 z"
       id="path46179" />
    <rect
       style="fill:none;stroke:#000000;stroke-opacity:1"
       id="rect46471"
       width="483.02924"
       height="342.54315"
       x="86.719788"
       y="71.977425"
       ry="31.219124"
       rx="41.625496" />
  </g>
</svg>
